<?xml version="1.0"?>
<!DOCTYPE svg PUBLIC "-//W3C//DTD SVG 1.1//EN" "http://www.w3.org/Graphics/SVG/1.1/DTD/svg11.dtd">
<svg xmlns="http://www.w3.org/2000/svg" xmlns:xl="http://www.w3.org/1999/xlink" version="1.1" viewBox="228 89 88 99" width="88pt" height="99pt"><metadata xmlns:dc="http://purl.org/dc/elements/1.1/"><dc:date>2016-09-18 06:29Z</dc:date><!-- Produced by OmniGraffle Professional 5.4.4 --></metadata><defs></defs><g stroke="none" stroke-opacity="1" stroke-dasharray="none" fill="none" fill-opacity="1"><title>Canvas 1</title><g><title>Layer 1</title><path d="M 283.53414 168.14337 L 290.9065 173.30556 C 294.59269 175.88665 298.97054 177.47994 301.04553 174.51654 C 303.12053 171.55314 300.12601 167.98425 296.43983 165.40315 L 289.06746 160.24096 Z" fill="lime"/><path d="M 255.67627 159.58799 L 248.72167 165.30056 C 245.24437 168.15685 242.53248 171.94496 244.82871 174.74044 C 247.12494 177.53592 251.36765 175.61146 254.84495 172.75517 L 261.79955 167.0426 Z" fill="lime"/><path d="M 257.58421 125.007656 L 250.06395 120.063404 C 246.30382 117.59128 241.88122 116.12677 239.89382 119.14962 C 237.90643 122.17247 241.0041 125.65221 244.76423 128.12434 L 252.28449 133.06859 Z" fill="lime"/><ellipse cx="271.9758" cy="108.20718" rx="10.016259" ry="9.439892" fill="lime"/><path d="M 291.90071 133.34593 L 299.27308 128.183745 C 302.95926 125.60265 305.95378 122.033756 303.87879 119.070354 C 301.80379 116.10695 297.42594 117.700244 293.73976 120.28134 L 286.36739 125.44353 Z" fill="lime"/><ellipse cx="272.5" cy="144" rx="25.50004" ry="32.00005" fill="lime"/><ellipse cx="272.5" cy="143.999995" rx="21.000034" ry="26.352983" fill="#804000"/></g></g></svg>
